<svg width="120" height="121" viewBox="0 0 120 121" fill="none" xmlns="http://www.w3.org/2000/svg">
<path fill-rule="evenodd" clip-rule="evenodd" d="M108.794 78.1665C110.752 72.7041 111.818 66.8174 111.818 60.6816C111.818 54.5465 110.752 48.6603 108.795 43.1984C107.956 48.7681 106.056 54.6973 103.174 60.6825C106.056 66.6676 107.955 72.5969 108.794 78.1665ZM77.4836 109.476C71.9141 108.637 65.9849 106.738 59.9999 103.856C54.015 106.738 48.0859 108.637 42.5165 109.476C47.9785 111.434 53.8647 112.5 60 112.5C66.1353 112.5 72.0216 111.434 77.4836 109.476ZM51.0167 98.8043C49.2064 99.4776 47.4265 100.038 45.6898 100.485C34.9183 103.255 27.4075 101.371 23.3591 97.3226C19.3108 93.2742 17.4271 85.7634 20.1969 74.992C20.6434 73.2554 21.204 71.4756 21.8773 69.6654C25.4392 75.1904 29.8105 80.633 34.9291 85.7516C40.0481 90.8707 45.4912 95.2422 51.0167 98.8043ZM59.9998 94.649C53.5061 91.0633 46.899 86.1507 40.7145 79.9662C34.5305 73.7821 29.6181 67.1756 26.0325 60.6823C29.6182 54.1886 34.5308 47.5814 40.7154 41.3969C46.8996 35.2127 53.5064 30.3002 59.9998 26.7145C66.4931 30.3002 73.0998 35.2126 79.284 41.3967C85.4686 47.5813 90.3812 54.1886 93.967 60.6823C90.3813 67.1756 85.469 73.7822 79.2849 79.9663C73.1004 86.1508 66.4934 91.0633 59.9998 94.649ZM68.983 98.8042C74.5084 95.2422 79.9513 90.8707 85.0703 85.7518C90.1889 80.6331 94.5602 75.1905 98.1221 69.6655C98.7954 71.4756 99.3559 73.2553 99.8025 74.9918C102.572 85.7633 100.689 93.2741 96.6402 97.3224C92.5918 101.371 85.0811 103.255 74.3096 100.485C72.573 100.038 70.7932 99.4775 68.983 98.8042ZM98.1223 51.6993C98.7959 49.8887 99.3567 48.1083 99.8034 46.3713C102.564 35.6366 100.702 28.1404 96.6826 24.0823L96.5995 23.9992C92.5414 19.9794 85.0452 18.118 74.3105 20.8784C72.5735 21.325 70.7933 21.8858 68.9828 22.5593C74.5079 26.1212 79.9506 30.4925 85.0694 35.6113C90.1886 40.7305 94.5603 46.1737 98.1223 51.6993ZM59.9999 17.5079C65.9848 14.6257 71.9139 12.726 77.4834 11.887C72.0215 9.9297 66.1352 8.86346 60 8.86346C53.8648 8.86346 47.9786 9.92969 42.5167 11.887C48.0861 12.7261 54.0151 14.6257 59.9999 17.5079ZM23.2546 24.1453C23.3239 24.0757 23.3933 24.0063 23.4629 23.937C27.5354 19.9602 35.0096 18.1321 45.6889 20.8782C47.4259 21.3249 49.2062 21.8857 51.0169 22.5592C45.4916 26.1212 40.0488 30.4926 34.93 35.6115C29.8108 40.7306 25.4392 46.1738 21.8771 51.6994C21.2035 49.8886 20.6427 48.1082 20.196 46.3711C17.4499 35.692 19.2779 28.2179 23.2546 24.1453ZM11.2049 43.1996C9.24788 48.6612 8.18182 54.5469 8.18182 60.6816C8.18182 66.817 9.2481 72.7033 11.2055 78.1653C12.0444 72.5961 13.9439 66.6672 16.8258 60.6825C13.9437 54.6978 12.044 48.7689 11.2049 43.1996ZM17.4245 18.4049C6.65428 29.2507 0 44.1891 0 60.6816C0 93.8187 26.8629 120.682 60 120.682C93.1371 120.682 120 93.8187 120 60.6816C120 44.1432 113.309 29.1676 102.486 18.3144L102.427 18.2552L102.367 18.1963C91.5142 7.37306 76.5385 0.681641 60 0.681641C43.507 0.681641 28.5682 7.33629 17.7223 18.107C17.6723 18.1561 17.6225 18.2054 17.5728 18.255C17.5231 18.3048 17.4737 18.3547 17.4245 18.4049Z" fill="url(#paint0_radial_3_198)"/>
<path fill-rule="evenodd" clip-rule="evenodd" d="M108.794 78.1665C110.752 72.7041 111.818 66.8174 111.818 60.6816C111.818 54.5465 110.752 48.6603 108.795 43.1984C107.956 48.7681 106.056 54.6973 103.174 60.6825C106.056 66.6676 107.955 72.5969 108.794 78.1665ZM77.4836 109.476C71.9141 108.637 65.9849 106.738 59.9999 103.856C54.015 106.738 48.0859 108.637 42.5165 109.476C47.9785 111.434 53.8647 112.5 60 112.5C66.1353 112.5 72.0216 111.434 77.4836 109.476ZM51.0167 98.8043C49.2064 99.4776 47.4265 100.038 45.6898 100.485C34.9183 103.255 27.4075 101.371 23.3591 97.3226C19.3108 93.2742 17.4271 85.7634 20.1969 74.992C20.6434 73.2554 21.204 71.4756 21.8773 69.6654C25.4392 75.1904 29.8105 80.633 34.9291 85.7516C40.0481 90.8707 45.4912 95.2422 51.0167 98.8043ZM59.9998 94.649C53.5061 91.0633 46.899 86.1507 40.7145 79.9662C34.5305 73.7821 29.6181 67.1756 26.0325 60.6823C29.6182 54.1886 34.5308 47.5814 40.7154 41.3969C46.8996 35.2127 53.5064 30.3002 59.9998 26.7145C66.4931 30.3002 73.0998 35.2126 79.284 41.3967C85.4686 47.5813 90.3812 54.1886 93.967 60.6823C90.3813 67.1756 85.469 73.7822 79.2849 79.9663C73.1004 86.1508 66.4934 91.0633 59.9998 94.649ZM68.983 98.8042C74.5084 95.2422 79.9513 90.8707 85.0703 85.7518C90.1889 80.6331 94.5602 75.1905 98.1221 69.6655C98.7954 71.4756 99.3559 73.2553 99.8025 74.9918C102.572 85.7633 100.689 93.2741 96.6402 97.3224C92.5918 101.371 85.0811 103.255 74.3096 100.485C72.573 100.038 70.7932 99.4775 68.983 98.8042ZM98.1223 51.6993C98.7959 49.8887 99.3567 48.1083 99.8034 46.3713C102.564 35.6366 100.702 28.1404 96.6826 24.0823L96.5995 23.9992C92.5414 19.9794 85.0452 18.118 74.3105 20.8784C72.5735 21.325 70.7933 21.8858 68.9828 22.5593C74.5079 26.1212 79.9506 30.4925 85.0694 35.6113C90.1886 40.7305 94.5603 46.1737 98.1223 51.6993ZM59.9999 17.5079C65.9848 14.6257 71.9139 12.726 77.4834 11.887C72.0215 9.9297 66.1352 8.86346 60 8.86346C53.8648 8.86346 47.9786 9.92969 42.5167 11.887C48.0861 12.7261 54.0151 14.6257 59.9999 17.5079ZM23.2546 24.1453C23.3239 24.0757 23.3933 24.0063 23.4629 23.937C27.5354 19.9602 35.0096 18.1321 45.6889 20.8782C47.4259 21.3249 49.2062 21.8857 51.0169 22.5592C45.4916 26.1212 40.0488 30.4926 34.93 35.6115C29.8108 40.7306 25.4392 46.1738 21.8771 51.6994C21.2035 49.8886 20.6427 48.1082 20.196 46.3711C17.4499 35.692 19.2779 28.2179 23.2546 24.1453ZM11.2049 43.1996C9.24788 48.6612 8.18182 54.5469 8.18182 60.6816C8.18182 66.817 9.2481 72.7033 11.2055 78.1653C12.0444 72.5961 13.9439 66.6672 16.8258 60.6825C13.9437 54.6978 12.044 48.7689 11.2049 43.1996ZM17.4245 18.4049C6.65428 29.2507 0 44.1891 0 60.6816C0 93.8187 26.8629 120.682 60 120.682C93.1371 120.682 120 93.8187 120 60.6816C120 44.1432 113.309 29.1676 102.486 18.3144L102.427 18.2552L102.367 18.1963C91.5142 7.37306 76.5385 0.681641 60 0.681641C43.507 0.681641 28.5682 7.33629 17.7223 18.107C17.6723 18.1561 17.6225 18.2054 17.5728 18.255C17.5231 18.3048 17.4737 18.3547 17.4245 18.4049Z" fill="url(#paint1_radial_3_198)"/>
<path fill-rule="evenodd" clip-rule="evenodd" d="M108.794 78.1665C110.752 72.7041 111.818 66.8174 111.818 60.6816C111.818 54.5465 110.752 48.6603 108.795 43.1984C107.956 48.7681 106.056 54.6973 103.174 60.6825C106.056 66.6676 107.955 72.5969 108.794 78.1665ZM77.4836 109.476C71.9141 108.637 65.9849 106.738 59.9999 103.856C54.015 106.738 48.0859 108.637 42.5165 109.476C47.9785 111.434 53.8647 112.5 60 112.5C66.1353 112.5 72.0216 111.434 77.4836 109.476ZM51.0167 98.8043C49.2064 99.4776 47.4265 100.038 45.6898 100.485C34.9183 103.255 27.4075 101.371 23.3591 97.3226C19.3108 93.2742 17.4271 85.7634 20.1969 74.992C20.6434 73.2554 21.204 71.4756 21.8773 69.6654C25.4392 75.1904 29.8105 80.633 34.9291 85.7516C40.0481 90.8707 45.4912 95.2422 51.0167 98.8043ZM59.9998 94.649C53.5061 91.0633 46.899 86.1507 40.7145 79.9662C34.5305 73.7821 29.6181 67.1756 26.0325 60.6823C29.6182 54.1886 34.5308 47.5814 40.7154 41.3969C46.8996 35.2127 53.5064 30.3002 59.9998 26.7145C66.4931 30.3002 73.0998 35.2126 79.284 41.3967C85.4686 47.5813 90.3812 54.1886 93.967 60.6823C90.3813 67.1756 85.469 73.7822 79.2849 79.9663C73.1004 86.1508 66.4934 91.0633 59.9998 94.649ZM68.983 98.8042C74.5084 95.2422 79.9513 90.8707 85.0703 85.7518C90.1889 80.6331 94.5602 75.1905 98.1221 69.6655C98.7954 71.4756 99.3559 73.2553 99.8025 74.9918C102.572 85.7633 100.689 93.2741 96.6402 97.3224C92.5918 101.371 85.0811 103.255 74.3096 100.485C72.573 100.038 70.7932 99.4775 68.983 98.8042ZM98.1223 51.6993C98.7959 49.8887 99.3567 48.1083 99.8034 46.3713C102.564 35.6366 100.702 28.1404 96.6826 24.0823L96.5995 23.9992C92.5414 19.9794 85.0452 18.118 74.3105 20.8784C72.5735 21.325 70.7933 21.8858 68.9828 22.5593C74.5079 26.1212 79.9506 30.4925 85.0694 35.6113C90.1886 40.7305 94.5603 46.1737 98.1223 51.6993ZM59.9999 17.5079C65.9848 14.6257 71.9139 12.726 77.4834 11.887C72.0215 9.9297 66.1352 8.86346 60 8.86346C53.8648 8.86346 47.9786 9.92969 42.5167 11.887C48.0861 12.7261 54.0151 14.6257 59.9999 17.5079ZM23.2546 24.1453C23.3239 24.0757 23.3933 24.0063 23.4629 23.937C27.5354 19.9602 35.0096 18.1321 45.6889 20.8782C47.4259 21.3249 49.2062 21.8857 51.0169 22.5592C45.4916 26.1212 40.0488 30.4926 34.93 35.6115C29.8108 40.7306 25.4392 46.1738 21.8771 51.6994C21.2035 49.8886 20.6427 48.1082 20.196 46.3711C17.4499 35.692 19.2779 28.2179 23.2546 24.1453ZM11.2049 43.1996C9.24788 48.6612 8.18182 54.5469 8.18182 60.6816C8.18182 66.817 9.2481 72.7033 11.2055 78.1653C12.0444 72.5961 13.9439 66.6672 16.8258 60.6825C13.9437 54.6978 12.044 48.7689 11.2049 43.1996ZM17.4245 18.4049C6.65428 29.2507 0 44.1891 0 60.6816C0 93.8187 26.8629 120.682 60 120.682C93.1371 120.682 120 93.8187 120 60.6816C120 44.1432 113.309 29.1676 102.486 18.3144L102.427 18.2552L102.367 18.1963C91.5142 7.37306 76.5385 0.681641 60 0.681641C43.507 0.681641 28.5682 7.33629 17.7223 18.107C17.6723 18.1561 17.6225 18.2054 17.5728 18.255C17.5231 18.3048 17.4737 18.3547 17.4245 18.4049Z" fill="url(#paint2_radial_3_198)"/>
<path fill-rule="evenodd" clip-rule="evenodd" d="M108.794 78.1665C110.752 72.7041 111.818 66.8174 111.818 60.6816C111.818 54.5465 110.752 48.6603 108.795 43.1984C107.956 48.7681 106.056 54.6973 103.174 60.6825C106.056 66.6676 107.955 72.5969 108.794 78.1665ZM77.4836 109.476C71.9141 108.637 65.9849 106.738 59.9999 103.856C54.015 106.738 48.0859 108.637 42.5165 109.476C47.9785 111.434 53.8647 112.5 60 112.5C66.1353 112.5 72.0216 111.434 77.4836 109.476ZM51.0167 98.8043C49.2064 99.4776 47.4265 100.038 45.6898 100.485C34.9183 103.255 27.4075 101.371 23.3591 97.3226C19.3108 93.2742 17.4271 85.7634 20.1969 74.992C20.6434 73.2554 21.204 71.4756 21.8773 69.6654C25.4392 75.1904 29.8105 80.633 34.9291 85.7516C40.0481 90.8707 45.4912 95.2422 51.0167 98.8043ZM59.9998 94.649C53.5061 91.0633 46.899 86.1507 40.7145 79.9662C34.5305 73.7821 29.6181 67.1756 26.0325 60.6823C29.6182 54.1886 34.5308 47.5814 40.7154 41.3969C46.8996 35.2127 53.5064 30.3002 59.9998 26.7145C66.4931 30.3002 73.0998 35.2126 79.284 41.3967C85.4686 47.5813 90.3812 54.1886 93.967 60.6823C90.3813 67.1756 85.469 73.7822 79.2849 79.9663C73.1004 86.1508 66.4934 91.0633 59.9998 94.649ZM68.983 98.8042C74.5084 95.2422 79.9513 90.8707 85.0703 85.7518C90.1889 80.6331 94.5602 75.1905 98.1221 69.6655C98.7954 71.4756 99.3559 73.2553 99.8025 74.9918C102.572 85.7633 100.689 93.2741 96.6402 97.3224C92.5918 101.371 85.0811 103.255 74.3096 100.485C72.573 100.038 70.7932 99.4775 68.983 98.8042ZM98.1223 51.6993C98.7959 49.8887 99.3567 48.1083 99.8034 46.3713C102.564 35.6366 100.702 28.1404 96.6826 24.0823L96.5995 23.9992C92.5414 19.9794 85.0452 18.118 74.3105 20.8784C72.5735 21.325 70.7933 21.8858 68.9828 22.5593C74.5079 26.1212 79.9506 30.4925 85.0694 35.6113C90.1886 40.7305 94.5603 46.1737 98.1223 51.6993ZM59.9999 17.5079C65.9848 14.6257 71.9139 12.726 77.4834 11.887C72.0215 9.9297 66.1352 8.86346 60 8.86346C53.8648 8.86346 47.9786 9.92969 42.5167 11.887C48.0861 12.7261 54.0151 14.6257 59.9999 17.5079ZM23.2546 24.1453C23.3239 24.0757 23.3933 24.0063 23.4629 23.937C27.5354 19.9602 35.0096 18.1321 45.6889 20.8782C47.4259 21.3249 49.2062 21.8857 51.0169 22.5592C45.4916 26.1212 40.0488 30.4926 34.93 35.6115C29.8108 40.7306 25.4392 46.1738 21.8771 51.6994C21.2035 49.8886 20.6427 48.1082 20.196 46.3711C17.4499 35.692 19.2779 28.2179 23.2546 24.1453ZM11.2049 43.1996C9.24788 48.6612 8.18182 54.5469 8.18182 60.6816C8.18182 66.817 9.2481 72.7033 11.2055 78.1653C12.0444 72.5961 13.9439 66.6672 16.8258 60.6825C13.9437 54.6978 12.044 48.7689 11.2049 43.1996ZM17.4245 18.4049C6.65428 29.2507 0 44.1891 0 60.6816C0 93.8187 26.8629 120.682 60 120.682C93.1371 120.682 120 93.8187 120 60.6816C120 44.1432 113.309 29.1676 102.486 18.3144L102.427 18.2552L102.367 18.1963C91.5142 7.37306 76.5385 0.681641 60 0.681641C43.507 0.681641 28.5682 7.33629 17.7223 18.107C17.6723 18.1561 17.6225 18.2054 17.5728 18.255C17.5231 18.3048 17.4737 18.3547 17.4245 18.4049Z" fill="url(#paint3_radial_3_198)"/>
<defs>
<radialGradient id="paint0_radial_3_198" cx="0" cy="0" r="1" gradientUnits="userSpaceOnUse" gradientTransform="translate(102.5 104) rotate(-178.995) scale(85.5132)">
<stop stop-color="#D946EF"/>
<stop offset="1" stop-color="#D946EF" stop-opacity="0"/>
</radialGradient>
<radialGradient id="paint1_radial_3_198" cx="0" cy="0" r="1" gradientUnits="userSpaceOnUse" gradientTransform="translate(14.5 100.5) rotate(-88.9391) scale(81.0139 88.5265)">
<stop stop-color="#FCD34D"/>
<stop offset="1" stop-color="#FCD34D" stop-opacity="0"/>
</radialGradient>
<radialGradient id="paint2_radial_3_198" cx="0" cy="0" r="1" gradientUnits="userSpaceOnUse" gradientTransform="translate(102.5 18) rotate(90) scale(85.5)">
<stop stop-color="#6366F1"/>
<stop offset="1" stop-color="#6366F1" stop-opacity="0"/>
</radialGradient>
<radialGradient id="paint3_radial_3_198" cx="0" cy="0" r="1" gradientUnits="userSpaceOnUse" gradientTransform="translate(18.5 17) rotate(91.34) scale(85.5234 85.5234)">
<stop stop-color="#5EEAD4"/>
<stop offset="1" stop-color="#5EEAD4" stop-opacity="0"/>
</radialGradient>
</defs>
</svg>
